<!-- Generator: Adobe Illustrator 22.0.1, SVG Export Plug-In  -->
<svg version="1.1"
	 xmlns="http://www.w3.org/2000/svg" xmlns:xlink="http://www.w3.org/1999/xlink" xmlns:a="http://ns.adobe.com/AdobeSVGViewerExtensions/3.0/"
	 x="0px" y="0px" width="395.4px" height="352.3px" viewBox="0 0 395.4 352.3" style="enable-background:new 0 0 395.4 352.3;"
	 xml:space="preserve">
<style type="text/css">
	.st0{fill:#999999;}
</style>
<defs>
</defs>
<path class="st0" d="M197.7,20.9l182.9,133.9c1.6,1.2,3.5,1.8,5.5,1.8c3,0,5.8-1.4,7.5-3.8c1.5-2,2.1-4.5,1.7-6.9
	c-0.4-2.5-1.7-4.6-3.7-6.1L203.2,1.8c-3.3-2.4-7.7-2.4-11,0L3.8,139.7c-2,1.5-3.3,3.6-3.7,6.1c-0.4,2.5,0.2,4.9,1.7,6.9
	c3,4.1,8.9,5.1,13,2L197.7,20.9z"/>
<path class="st0" d="M229.7,343.6c0.4,4.9,4.5,8.6,9.3,8.6h103.3c5.1,0,9.3-4.2,9.3-9.3V168.3c0-5.1-4.2-9.3-9.3-9.3
	c-5.1,0-9.3,4.2-9.3,9.3v165.4h-84.6v-90.7c0-27.9-22.7-50.6-50.6-50.6s-50.6,22.7-50.6,50.6v90.7H62.5V168.3c0-5.1-4.2-9.3-9.3-9.3
	c-5.1,0-9.3,4.2-9.3,9.3v174.7c0,5.1,4.2,9.3,9.3,9.3h103.3c4.8,0,8.9-3.8,9.3-8.6c0-0.2,0-0.5,0-0.7v-100c0-17.6,14.3-32,32-32
	s32,14.3,32,32v100C229.7,343.2,229.7,343.4,229.7,343.6z"/>
</svg>

