<!-- Generator: Adobe Illustrator 22.0.1, SVG Export Plug-In  -->
<svg version="1.1"
	 xmlns="http://www.w3.org/2000/svg" xmlns:xlink="http://www.w3.org/1999/xlink" xmlns:a="http://ns.adobe.com/AdobeSVGViewerExtensions/3.0/"
	 x="0px" y="0px" width="357.5px" height="333.2px" viewBox="0 0 357.5 333.2" style="enable-background:new 0 0 357.5 333.2;"
	 xml:space="preserve">
<style type="text/css">
	.st0{fill:#999999;}
</style>
<defs>
</defs>
<path class="st0" d="M356.9,99.7C351.7,41.9,310.7,0,259.4,0c-32.7,0-63.7,17.3-81.6,45.5C160.1,16.9,130.5,0,98.1,0
	C46.9,0,5.8,41.9,0.6,99.6c-0.4,2.5-2.2,16,3,38c7.4,31.4,24.6,60,49.5,82.7l123.4,112l1.1,1l126.6-113c25-22.6,42.1-51.2,49.5-82.7
	C359,115.9,357.3,102.3,356.9,99.7z M177.8,310.3L64.6,207.6c-22.4-20.3-37.8-45.9-44.4-74c-4.5-19.1-3-30.1-2.8-31.4l0.1-0.8
	C21.9,52.6,55.8,17,98.1,17c31.2,0,58.7,19.2,71.8,50.1l7.8,18.6l7.8-18.6C198.5,36.7,227.4,17,259.4,17c42.3,0,76.3,35.8,80.7,85.3
	c0,0.1,1.9,11.5-2.8,31.4c-6.6,28.1-22,53.6-44.4,73.9L177.8,310.3z"/>
</svg>

