<!-- Generator: Adobe Illustrator 22.0.1, SVG Export Plug-In  -->
<svg version="1.1"
	 xmlns="http://www.w3.org/2000/svg" xmlns:xlink="http://www.w3.org/1999/xlink" xmlns:a="http://ns.adobe.com/AdobeSVGViewerExtensions/3.0/"
	 x="0px" y="0px" width="364.3px" height="346.5px" viewBox="0 0 364.3 346.5" style="enable-background:new 0 0 364.3 346.5;"
	 xml:space="preserve">
<style type="text/css">
	.st0{fill:#999999;}
</style>
<defs>
</defs>
<path class="st0" d="M181.5,0c-52.6,0-95.4,42.6-95.4,95.1c0,52.6,42.8,95.4,95.4,95.4c52.6,0,95.4-42.8,95.4-95.4
	C276.9,42.6,234.1,0,181.5,0z M181.5,173.2c-43.1,0-78.2-35.1-78.2-78.2c0-43.1,35.1-78.2,78.2-78.2s78.2,35.1,78.2,78.2
	S224.6,173.2,181.5,173.2z"/>
<path class="st0" d="M243.5,217.1H120.8C54.2,217.1,0,271.3,0,337.9c0,4.8,3.8,8.6,8.6,8.6h347.1c4.8,0,8.6-3.8,8.6-8.6
	C364.3,271.3,310.1,217.1,243.5,217.1z M346.8,329.3H17.4l0.7-5.2c6.9-51.2,51-89.8,102.7-89.8h122.7c51.7,0,95.9,38.6,102.7,89.8
	L346.8,329.3z"/>
</svg>

